<?xml version="1.0" encoding="utf-8"?>
<!-- Generator: Adobe Illustrator 19.2.1, SVG Export Plug-In . SVG Version: 6.00 Build 0)  -->
<svg version="1.1" id="layer" xmlns="http://www.w3.org/2000/svg" xmlns:xlink="http://www.w3.org/1999/xlink" x="0px" y="0px"
	 viewBox="0 0 652 652" style="enable-background:new 0 0 652 652;" xml:space="preserve">
<style type="text/css">
	.st0{fill:#2AA4CA;}
</style>
<path class="st0" d="M566.3,290.8l4.3-2.2c0,0-18.4-24.9-59.5-24.9c-21.6,0-32.5,8.7-47.6,8.7c0,0-6.5,1.1-11.9-3.2
	c0,0,6.5,10.8,32.5,10.8c18.4,0,32.5-10.8,45.5-10.8C546.8,268.1,559.8,284.3,566.3,290.8"/>
<path class="st0" d="M507.8,290.8l-4.3-2.2c0,0,18.4-24.9,59.5-24.9c21.6,0,32.5,8.7,47.6,8.7c0,0,6.5,1.1,11.9-3.2
	c0,0-6.5,10.8-32.5,10.8c-18.4,0-32.5-10.8-45.5-10.8C527.3,268.1,513.3,284.3,507.8,290.8"/>
<path class="st0" d="M519.8,244.3c-27.1-8.7-46.5-33.5-46.5-63.9c0-5.4,1.1-10.8,2.2-16.2l43.3,5.4c0,0,16.2,1.1,16.2,30.3
	C533.8,229.1,519.8,244.3,519.8,244.3 M558.7,244.3c27.1-8.7,46.5-33.5,46.5-63.9c0-5.4-1.1-10.8-2.2-16.2l-43.3,5.4
	c0,0-16.2,1.1-16.2,30.3C545.7,229.1,558.7,244.3,558.7,244.3 M539.2,133.9c5.4,0,9.7,4.3,9.7,9.7c0,4.3-3.2,7.6-6.5,9.7
	c0,0-1.1,0-1.1,1.1c0,1.1,2.2,1.1,3.2,1.1L602,162c-8.7-27.1-33.5-47.6-63.9-47.6l0,0c-30.3,0-55.2,19.5-63.9,47.6l57.4-6.5
	c1.1,0,3.2,0,3.2-1.1s0-1.1-1.1-1.1c-3.2-2.2-6.5-5.4-6.5-9.7C529.5,138.2,533.8,133.9,539.2,133.9 M488.4,261.6
	c-1.1,2.2-8.7,0-14.1,1.1c-5.4,2.2-37.9,5.4-51.9-27.1c0,0,13,14.1,23.8,15.2c10.8,1.1,21.6,3.2,31.4,8.7h2.2c0,0,0-1.1-1.1-1.1
	c-1.1-1.1-10.8-4.3-16.2-19.5c-2.2-7.6-2.2-14.1-3.2-18.4c0,0,10.8,11.9,15.2,19.5C478.6,247.5,479.7,256.2,488.4,261.6
	 M455.9,245.3c-1.1,1.1-3.2,0-3.2-1.1c-1.1,0-5.4-3.2-15.2-5.4c-8.7-3.2-26-17.3-23.8-41.1c0,0,2.2,8.7,9.7,15.2
	c6.5,6.5,9.7,6.5,13,11.9s13,16.2,14.1,16.2v-1.1c-1.1-1.1-3.2-6.5-4.3-8.7c-1.1-2.2-6.5-16.2,1.1-33.5c0,0,7.6,13,6.5,26
	c0,13-1.1,9.7,2.2,20.6C454.8,242.1,455.9,244.3,455.9,245.3 M435.3,214c0,0-2.2-2.2-4.3-5.4c-1.1-2.2-11.9-13-13-16.2
	c-1.1-2.2-13-16.2-4.3-36.8c0,0,1.1,0,1.1,4.3c0,4.3,4.3,16.2,8.7,20.6c3.2,4.3,6.5,11.9,7.6,20.6c0,0,0,1.1,1.1,1.1
	c1.1,1.1,1.1-1.1,1.1-1.1s0-7.6,0-11.9s2.2-13,6.5-18.4c0,0,2.2-2.2,3.2-5.4c0,0,1.1-2.2,2.2-3.2c0,0,1.1,14.1-4.3,27.1
	c-4.3,13-6.5,15.2-5.4,22.7L435.3,214z M427.8,175c0,0-1.1-2.2-1.1-3.2s-2.2-9.7-2.2-10.8c-1.1-2.2-4.3-9.7-4.3-18.4
	s4.3-21.6,13-31.4c0,0,0,3.2-3.2,9.7c-3.2,6.5-1.1,13-1.1,14.1c0,1.1,1.1,8.7,1.1,11.9s-1.1,11.9-1.1,14.1v1.1l1.1-1.1
	c0,0,0-7.6,6.5-14.1c5.4-6.5,16.2-10.8,17.3-14.1c0,0-1.1,10.8-13,22.7c-10.8,10.8-7.6,5.4-10.8,15.2
	C429.9,170.7,427.8,173.9,427.8,175L427.8,175 M434.3,138.2c0,0,0-1.1,1.1-4.3c2.2-3.2,0-9.7,2.2-17.3c2.2-8.7,6.5-22.7,23.8-32.5
	c0,0-2.2,1.1-2.2,3.2c0,2.2-5.4,9.7-6.5,16.2c-1.1,6.5-7.6,16.2-9.7,18.4c-2.2,2.2-1.1,2.2-1.1,2.2s1.1,0,2.2-2.2
	c1.1-2.2,6.5-7.6,13-9.7c6.5-1.1,16.2-4.3,16.2-5.4c0,0-10.8,10.8-20.6,16.2c-9.7,5.4-10.8,4.3-17.3,11.9
	C436.4,136,434.3,138.2,434.3,138.2 M457,105.7c0,0,0-1.1,2.2-2.2s3.2-6.5,6.5-11.9c3.2-5.4,10.8-17.3,29.2-20.6
	c0,0-5.4,4.3-6.5,5.4c-1.1,1.1-6.5,8.7-8.7,10.8c-2.2,2.2-9.7,7.6-11.9,8.7l-1.1,1.1h1.1c0,0,7.6-4.3,15.2-4.3c7.6,0,16.2,0,17.3,0
	c0,0-7.6,5.4-24.9,8.7c-17.3,3.2-14.1,3.2-17.3,5.4C458.1,105.7,458.1,106.8,457,105.7 M488.4,86.3c0,0,0-1.1,3.2-2.2
	c3.2-1.1,2.2-3.2,10.8-7.6c8.7-5.4,17.3-6.5,27.1-3.2c0,0-4.3,0-4.3,1.1s-6.5,2.2-8.7,3.2S505.7,83,501.4,83
	c-4.3,1.1-2.2,1.1-2.2,1.1h1.1c0,0,9.7-1.1,15.2,1.1s5.4,2.2,7.6,3.2c2.2,1.1,4.3,1.1,5.4,2.2c0,0-5.4,0-8.7,0
	c-3.2,0-11.9-1.1-16.2-3.2c-4.3-2.2-8.7-3.2-10.8-2.2C490.5,86.3,489.4,86.3,488.4,86.3 M523,81.9c0,0,0,0,3.2-1.1
	c3.2-1.1,3.2-2.2,8.7-3.2s15.2-2.2,22.7,3.2c0,0-5.4,0-6.5,0c-1.1,0-9.7,1.1-11.9,1.1c-2.2,0-6.5-1.1-7.6,0
	c-1.1,1.1,4.3,2.2,4.3,2.2s4.3,0,8.7,4.3c4.3,4.3,6.5,6.5,7.6,6.5c0,0-11.9-3.2-15.2-4.3s-8.7-6.5-9.7-7.6
	C526.2,83,523,81.9,523,81.9 M551.1,86.3c0,0,7.6,0,13,3.2s9.7,8.7,10.8,10.8c0,0-3.2-2.2-5.4-3.2c-2.2-1.1-7.6-4.3-9.7-4.3
	C559.8,92.7,552.2,87.3,551.1,86.3 M587.9,262.7c0,0,1.1-1.1,4.3-4.3c3.2-3.2,4.3-7.6,8.7-15.2s7.6-11.9,15.2-19.5
	c0,0-1.1,5.4-1.1,7.6c0,2.2-1.1,10.8-6.5,16.2c-4.3,5.4-5.4,6.5-10.8,9.7c0,0-2.2,1.1-2.2,2.2c0,1.1,3.2,0,3.2,0s4.3-1.1,5.4-2.2
	c1.1-1.1,6.5-3.2,8.7-4.3c2.2-1.1,4.3-2.2,8.7-3.2c5.4-1.1,22.7-5.4,29.2-17.3c0,0-2.2,6.5-4.3,9.7c-2.2,3.2-17.3,21.6-36.8,21.6
	c0,0-7.6-1.1-11.9-1.1c-4.3-1.1-5.4-1.1-6.5-1.1C592.3,262.7,587.9,262.7,587.9,262.7 M632.3,194.5c0,0-7.6,11.9-9.7,29.2
	c-2.2,17.3,1.1,11.9-1.1,19.5l-1.1,2.2c0,0,2.2-1.1,7.6-4.3s10.8-2.2,21.6-13s14.1-32.5,14.1-34.6c0,0-2.2,2.2-2.2,4.3
	s-2.2,5.4-3.2,5.4c0,0-13,14.1-14.1,15.2c-1.1,1.1-8.7,9.7-10.8,13c-1.1,2.2-6.5,7.6-6.5,6.5c0,0,0-1.1,0-2.2s4.3-5.4,5.4-10.8
	s2.2-8.7,2.2-11.9C634.5,209.6,632.3,196.6,632.3,194.5 M643.1,210.7c0,0-1.1-2.2,0-3.2c0-1.1,1.1-6.5-1.1-10.8
	c-2.2-4.3-6.5-18.4-6.5-27.1c0-8.7,1.1-9.7,1.1-9.7s2.2,7.6,2.2,8.7c1.1,1.1,7.6,14.1,7.6,21.6c-1.1,6.5-1.1,9.7-1.1,9.7
	s1.1-1.1,1.1-2.2s1.1-5.4,3.2-11.9c2.2-5.4,11.9-18.4,14.1-27.1c0,0,3.2,15.2-5.4,28.1c-8.7,14.1-8.7,10.8-11.9,17.3
	C644.2,209.6,643.1,210.7,643.1,210.7 M650.7,171.7c-1.1,0,0-5.4-2.2-7.6c-2.2-2.2-14.1-16.2-16.2-31.4c0,0,7.6,7.6,9.7,8.7
	c1.1,1.1,6.5,6.5,8.7,10.8c1.1,4.3,1.1,8.7,2.2,8.7s1.1-5.4,1.1-5.4s0-10.8,1.1-15.2c1.1-5.4,3.2-13,2.2-17.3c0,0,4.3,7.6,4.3,18.4
	s-4.3,19.5-5.4,20.6c-1.1,1.1-2.2,6.5-2.2,7.6C651.8,171.7,650.7,171.7,650.7,171.7 M635.6,96c0,0,16.2,9.7,14.1,42.2
	c0,0,0,1.1-1.1,0c-1.1-1.1-4.3-6.5-6.5-6.5c-1.1-1.1-16.2-9.7-22.7-23.8c0,0,1.1,0,2.2,1.1s5.4,3.2,6.5,4.3
	c1.1,1.1,6.5,1.1,10.8,5.4c4.3,4.3,5.4,7.6,6.5,9.7c0,0,1.1,1.1,0-1.1s-1.1-4.3-3.2-6.5c-1.1-4.3-3.2-9.7-3.2-14.1
	C637.7,103.6,636.6,98.2,635.6,96 M632.3,106.8c0,0,0-2.2-1.1-5.4c-1.1-3.2,0-6.5-5.4-14.1c-3.2-4.3-13-7.6-13-7.6s3.2,4.3,4.3,6.5
	c2.2,2.2,2.2,4.3,3.2,5.4c1.1,1.1,4.3,4.3,5.4,6.5c0,0,1.1,1.1,1.1,2.2s-1.1,0-2.2-1.1c0,0-6.5-5.4-9.7-5.4c-3.2,0-10.8-1.1-13-2.2
	c0,0,8.7,7.6,17.3,9.7C629.1,102.5,632.3,106.8,632.3,106.8 M612.8,87.3c0,0-8.7-11.9-23.8-10.8c0,0,1.1,1.1,2.2,1.1
	s4.3,3.2,6.5,4.3C599.8,81.9,603.1,85.2,612.8,87.3"/>
<path class="st0" d="M145.3,71.1V215c0,13-2.2,23.8-6.5,33.5s-9.7,17.3-17.3,23.8c-7.6,6.5-16.2,10.8-26,14.1
	c-9.7,3.2-21.6,5.4-33.5,5.4s-22.7-2.2-33.5-5.4c-10.8-3.2-19.5-8.7-26-14.1s-13-15.2-17.3-24.9c-4.3-9.7-6.5-20.6-6.5-32.5V71.1H23
	V215c0,14.1,3.2,24.9,9.7,31.4s17.3,8.7,29.2,8.7s21.6-3.2,28.1-9.7c6.5-6.5,9.7-17.3,9.7-31.4V71.1H145.3z M358.5,288.6H313
	l-86.6-142.9v142.9h-44.4V71.1h44.4L314.1,214V71.1h44.4V288.6z M11.1,428.2c-9.7,0-17.3-3.2-22.7-8.7c-6.5-5.4-9.7-13-9.7-22.7
	v-2.2c0-6.5,1.1-13,4.3-17.3c3.2-4.3,5.4-8.7,10.8-11.9c4.3-3.2,9.7-4.3,15.2-4.3c8.7,0,16.2,3.2,20.6,8.7s7.6,14.1,7.6,23.8v7.6
	H-4.1c0,4.3,2.2,7.6,5.4,10.8c3.2,2.2,6.5,4.3,10.8,4.3c6.5,0,11.9-2.2,15.2-7.6l8.7,9.7c-2.2,3.2-6.5,6.5-10.8,8.7
	C20.8,427.2,16.5,428.2,11.1,428.2 M8.9,375.2c-3.2,0-6.5,1.1-8.7,3.2c-2.2,2.2-3.2,5.4-4.3,9.7h23.8v-1.1c0-4.3-1.1-6.5-3.2-8.7
	C15.4,376.3,12.2,375.2,8.9,375.2 M63,362.2v7.6c4.3-5.4,10.8-8.7,18.4-8.7c6.5,0,11.9,2.2,15.2,6.5c3.2,4.3,5.4,9.7,5.4,18.4v42.2
	H85.8V386c0-3.2-1.1-6.5-2.2-7.6s-4.3-2.2-7.6-2.2c-5.4,0-8.7,2.2-10.8,6.5v46.5H46.8v-64.9L63,362.2L63,362.2z M139.9,406.6
	l11.9-44.4h18.4l-21.6,64.9h-16.2l-21.6-64.9H128L139.9,406.6z M177.8,344.9c0-2.2,1.1-4.3,2.2-6.5c1.1-2.2,4.3-2.2,6.5-2.2
	c3.2,0,5.4,1.1,6.5,2.2c2.2,2.2,2.2,4.3,2.2,6.5c0,2.2-1.1,5.4-2.2,6.5c-2.2,2.2-4.3,2.2-6.5,2.2c-3.2,0-5.4-1.1-6.5-2.2
	C178.8,350.3,177.8,348.2,177.8,344.9 M196.2,427.2h-17.3v-64.9h17.3V427.2z M247,378.5c-2.2,0-4.3,0-6.5,0c-6.5,0-10.8,2.2-13,6.5
	v42.2h-17.3v-64.9h17.3v7.6c3.2-5.4,8.7-8.7,14.1-8.7c2.2,0,3.2,0,5.4,1.1V378.5z M251.4,394.7c0-6.5,1.1-11.9,3.2-17.3
	c2.2-5.4,5.4-8.7,10.8-11.9c4.3-3.2,9.7-4.3,16.2-4.3c8.7,0,16.2,2.2,21.6,8.7c5.4,5.4,8.7,13,9.7,21.6v4.3c0,9.7-2.2,18.4-8.7,23.8
	c-5.4,6.5-13,8.7-21.6,8.7s-16.2-3.2-21.6-8.7C254.6,413.1,251.4,405.5,251.4,394.7L251.4,394.7L251.4,394.7z M268.7,395.8
	c0,6.5,1.1,10.8,3.2,14.1c2.2,3.2,5.4,5.4,9.7,5.4s7.6-2.2,9.7-5.4c2.2-3.2,3.2-8.7,3.2-15.2c0-6.5-1.1-10.8-3.2-14.1
	c-2.2-3.2-5.4-5.4-9.7-5.4s-7.6,2.2-9.7,5.4C269.8,383.9,268.7,388.2,268.7,395.8 M339,362.2v7.6c4.3-5.4,10.8-8.7,18.4-8.7
	c6.5,0,11.9,2.2,15.2,6.5c3.2,4.3,5.4,9.7,5.4,18.4v42.2h-17.3V386c0-3.2-1.1-6.5-2.2-7.6s-4.3-2.2-7.6-2.2c-5.4,0-8.7,2.2-10.8,6.5
	v46.5h-17.3v-64.9L339,362.2L339,362.2z M408.3,362.2v7.6c4.3-5.4,10.8-8.7,18.4-8.7c8.7,0,14.1,3.2,17.3,9.7
	c4.3-6.5,10.8-9.7,19.5-9.7c6.5,0,11.9,2.2,15.2,6.5c3.2,4.3,5.4,10.8,5.4,18.4v42.2h-17.3v-41.1c0-3.2-1.1-6.5-2.2-8.7
	s-4.3-2.2-7.6-2.2c-5.4,0-8.7,2.2-10.8,7.6v44.4h-17.3v-41.1c0-3.2-1.1-6.5-2.2-8.7c-1.1-2.2-4.3-2.2-7.6-2.2
	c-5.4,0-8.7,2.2-10.8,6.5v46.5H391v-64.9C392,362.2,408.3,362.2,408.3,362.2z M527.3,428.2c-9.7,0-17.3-3.2-22.7-8.7
	s-8.7-14.1-8.7-23.8v-2.2c0-6.5,1.1-13,4.3-17.3c3.2-4.3,5.4-8.7,10.8-11.9c4.3-3.2,9.7-4.3,15.2-4.3c8.7,0,16.2,3.2,20.6,8.7
	s7.6,14.1,7.6,23.8v7.6h-41.1c0,4.3,2.2,7.6,5.4,10.8c3.2,2.2,6.5,4.3,10.8,4.3c6.5,0,11.9-2.2,15.2-7.6l8.7,9.7
	c-2.2,3.2-6.5,6.5-10.8,8.7C537.1,427.2,532.7,428.2,527.3,428.2 M525.2,375.2c-3.2,0-6.5,1.1-8.7,3.2s-3.2,5.4-4.3,9.7H536v-1.1
	c0-4.3-1.1-6.5-3.2-8.7C531.7,376.3,528.4,375.2,525.2,375.2 M579.3,362.2v7.6c4.3-5.4,10.8-8.7,18.4-8.7c6.5,0,11.9,2.2,15.2,6.5
	c3.2,4.3,5.4,9.7,5.4,18.4v42.2h-17.3V386c0-3.2-1.1-6.5-2.2-7.6s-4.3-2.2-7.6-2.2c-5.4,0-8.7,2.2-10.8,6.5v46.5H563v-64.9
	L579.3,362.2L579.3,362.2z M652.9,346v16.2h10.8v13h-10.8v32.5c0,2.2,0,4.3,1.1,5.4c1.1,1.1,2.2,1.1,5.4,1.1c2.2,0,3.2,0,5.4,0v13
	c-3.2,1.1-6.5,2.2-10.8,2.2c-11.9,0-18.4-6.5-18.4-18.4v-34.6h-9.7v-13h9.7v-16.2h17.3V346z M37.1,512.7c0,9.7-2.2,18.4-6.5,23.8
	s-10.8,8.7-18.4,8.7c-6.5,0-11.9-2.2-16.2-6.5V570h-17.3v-90.9h16.2v6.5c4.3-5.4,9.7-7.6,16.2-7.6c7.6,0,14.1,3.2,18.4,8.7
	C33.8,493.2,37.1,501.8,37.1,512.7L37.1,512.7z M19.8,511.6c0-6.5-1.1-10.8-3.2-14.1s-5.4-4.3-9.7-4.3c-5.4,0-8.7,2.2-10.8,6.5v26
	c2.2,4.3,5.4,6.5,10.8,6.5C15.4,532.1,19.8,525.6,19.8,511.6 M83.6,496.4c-2.2,0-4.3,0-6.5,0c-6.5,0-10.8,2.2-13,6.5v43.3H47.9
	v-64.9h16.2v7.6c3.2-5.4,8.7-8.7,14.1-8.7c2.2,0,3.2,0,5.4,1.1V496.4z M87.9,511.6c0-6.5,1.1-11.9,3.2-17.3
	c2.2-5.4,5.4-8.7,10.8-11.9c4.3-3.2,9.7-4.3,16.2-4.3c8.7,0,16.2,2.2,21.6,8.7c5.4,5.4,8.7,13,9.7,21.6v4.3c0,9.7-2.2,18.4-8.7,23.8
	s-13,8.7-21.6,8.7s-16.2-3.2-21.6-8.7S87.9,522.4,87.9,511.6L87.9,511.6L87.9,511.6z M105.2,512.7c0,6.5,1.1,10.8,3.2,14.1
	c2.2,3.2,5.4,5.4,9.7,5.4s7.6-2.2,9.7-5.4c2.2-3.2,3.2-8.7,3.2-15.2c0-6.5-1.1-10.8-3.2-14.1c-2.2-3.2-5.4-5.4-9.7-5.4
	s-7.6,2.2-9.7,5.4C106.3,500.8,105.2,506.2,105.2,512.7 M157.2,511.6c0-9.7,2.2-18.4,6.5-23.8c4.3-6.5,10.8-8.7,19.5-8.7
	c6.5,0,11.9,2.2,16.2,7.6l1.1-6.5h16.2V543c0,5.4-1.1,10.8-4.3,15.2c-3.2,4.3-6.5,7.6-10.8,9.7c-4.3,2.2-9.7,3.2-16.2,3.2
	c-4.3,0-9.7-1.1-14.1-3.2c-4.3-2.2-7.6-4.3-9.7-7.6l7.6-10.8c4.3,5.4,9.7,7.6,15.2,7.6c4.3,0,8.7-1.1,10.8-3.2
	c2.2-2.2,4.3-5.4,4.3-10.8v-3.2c-4.3,4.3-8.7,6.5-15.2,6.5c-7.6,0-14.1-3.2-18.4-8.7S157.2,522.4,157.2,511.6L157.2,511.6z
	 M174.5,512.7c0,5.4,1.1,10.8,3.2,14.1c2.2,3.2,5.4,5.4,9.7,5.4c5.4,0,8.7-2.2,10.8-5.4v-27.1c-2.2-4.3-5.4-5.4-10.8-5.4
	c-4.3,0-7.6,2.2-9.7,5.4C175.6,500.8,174.5,506.2,174.5,512.7 M266.5,496.4c-2.2,0-4.3,0-6.5,0c-6.5,0-10.8,2.2-13,6.5v43.3h-17.3
	v-64.9h16.2v7.6c3.2-5.4,8.7-8.7,14.1-8.7c2.2,0,3.2,0,5.4,1.1L266.5,496.4z M309.8,545.1c-1.1-2.2-1.1-3.2-2.2-5.4
	c-4.3,4.3-9.7,7.6-16.2,7.6c-6.5,0-11.9-2.2-15.2-5.4c-3.2-3.2-5.4-9.7-5.4-15.2c0-6.5,2.2-11.9,7.6-16.2c5.4-4.3,11.9-5.4,21.6-5.4
	h7.6v-3.2c0-3.2-1.1-5.4-2.2-7.6c-1.1-2.2-4.3-2.2-7.6-2.2s-5.4,1.1-6.5,2.2c-1.1,1.1-2.2,3.2-2.2,5.4h-17.3c0-3.2,1.1-7.6,3.2-10.8
	c2.2-3.2,5.4-5.4,9.7-7.6c4.3-2.2,8.7-2.2,14.1-2.2c7.6,0,14.1,2.2,18.4,6.5c4.3,4.3,6.5,9.7,6.5,17.3v28.1c0,6.5,1.1,10.8,2.2,14.1
	v1.1L309.8,545.1L309.8,545.1z M295.7,533.2c2.2,0,5.4,0,6.5-2.2c2.2-1.1,3.2-2.2,4.3-4.3v-10.8h-6.5c-8.7,0-13,3.2-14.1,8.7v1.1
	c0,2.2,1.1,4.3,2.2,5.4C291.4,532.1,293.6,533.2,295.7,533.2 M355.2,480.2v7.6c4.3-5.4,10.8-8.7,18.4-8.7c8.7,0,14.1,3.2,17.3,9.7
	c4.3-6.5,10.8-9.7,19.5-9.7c6.5,0,11.9,2.2,15.2,6.5s5.4,10.8,5.4,18.4v42.2h-17.3v-41.1c0-3.2-1.1-6.5-2.2-8.7
	c-1.1-2.2-4.3-3.2-7.6-3.2c-5.4,0-8.7,2.2-10.8,7.6v45.5h-17.3v-41.1c0-3.2-1.1-6.5-2.2-8.7c-1.1-3.2-3.2-3.2-7.6-3.2
	c-5.4,0-8.7,2.2-10.8,6.5v46.5h-17.3v-64.9C339,480.2,355.2,480.2,355.2,480.2z M460.2,480.2v7.6c4.3-5.4,10.8-8.7,18.4-8.7
	c8.7,0,14.1,3.2,17.3,9.7c4.3-6.5,10.8-9.7,19.5-9.7c6.5,0,11.9,2.2,15.2,6.5c3.2,4.3,5.4,10.8,5.4,18.4v42.2h-16.2v-41.1
	c0-3.2-1.1-6.5-2.2-8.7c-1.1-2.2-4.3-3.2-7.6-3.2c-5.4,0-8.7,2.2-10.8,7.6v45.5h-17.3v-41.1c0-3.2-1.1-6.5-2.2-8.7
	c-1.1-3.2-4.3-3.2-7.6-3.2c-5.4,0-8.7,2.2-10.8,6.5v46.5H444v-64.9C445.1,480.2,460.2,480.2,460.2,480.2z M580.4,546.2
	c-9.7,0-17.3-3.2-22.7-8.7s-8.7-14.1-8.7-23.8v-2.2c0-6.5,1.1-13,4.3-17.3c3.2-4.3,5.4-8.7,10.8-11.9c4.3-3.2,9.7-4.3,15.2-4.3
	c8.7,0,16.2,3.2,20.6,8.7s7.6,14.1,7.6,23.8v7.6h-41.1c0,4.3,2.2,7.6,5.4,10.8c3.2,2.2,6.5,4.3,10.8,4.3c6.5,0,11.9-2.2,15.2-7.6
	l8.7,9.7c-2.2,3.2-6.5,6.5-10.8,8.7C590.1,545.1,584.7,546.2,580.4,546.2 M578.2,492.1c-3.2,0-6.5,1.1-8.7,3.2
	c-2.2,2.2-3.2,5.4-4.3,9.7H589V504c0-4.3-1.1-6.5-3.2-8.7C584.7,493.2,581.4,492.1,578.2,492.1"/>
</svg>
